<svg width="51" height="50" viewBox="0 0 51 50" fill="none" xmlns="http://www.w3.org/2000/svg">
<g id="Component 27">
<path id="Vector" d="M25.5 45.8334C37.0059 45.8334 46.3333 36.506 46.3333 25.0001C46.3333 13.4941 37.0059 4.16675 25.5 4.16675C13.9941 4.16675 4.66667 13.4941 4.66667 25.0001C4.66667 36.506 13.9941 45.8334 25.5 45.8334Z" stroke="#007EAE" stroke-width="3" stroke-linecap="round" stroke-linejoin="round"/>
<path id="Vector_2" d="M25.5 45.8332C37.0059 45.8332 46.3333 36.5058 46.3333 24.9998C46.3333 13.4939 37.0059 4.1665 25.5 4.1665C13.9941 4.1665 4.66667 13.4939 4.66667 24.9998C4.66667 36.5058 13.9941 45.8332 25.5 45.8332Z" stroke="#007EAE" stroke-width="3" stroke-linecap="round" stroke-linejoin="round"/>
<path id="Vector_3" d="M25.5 16.6667V33.3334" stroke="#007EAE" stroke-width="3" stroke-linecap="round" stroke-linejoin="round"/>
<path id="Vector_4" d="M17.1667 25H33.8333" stroke="#007EAE" stroke-width="3" stroke-linecap="round" stroke-linejoin="round"/>
</g>
</svg>
