<svg width="12" height="17" viewBox="0 0 12 17" fill="none" xmlns="http://www.w3.org/2000/svg">
<g id="Group 43">
<path id="Vector" d="M3 4.5V3.14286C3 2.57454 3.31607 2.02949 3.87868 1.62763C4.44129 1.22576 5.20435 1 6 1C6.79565 1 7.55871 1.22576 8.12132 1.62763C8.68393 2.02949 9 2.57454 9 3.14286V4.5M3 4.5C3.8 4.5 4.33333 4.5 4.5 4.5M3 4.5V6.67857M3 6.67857V8.85714C3 9.42546 3.31607 9.97051 3.87868 10.3724C4.44129 10.7742 5.20435 11 6 11C6.79565 11 7.55871 10.7742 8.12132 10.3724C8.68393 9.97051 9 9.42546 9 8.85714V6.67857M3 6.67857H4.5M9 4.5H7.5M9 4.5V6.67857M9 6.67857H7.5" stroke="#636363" stroke-width="1.3" stroke-linecap="round" stroke-linejoin="round"/>
<path id="Vector_2" d="M11 6.71436V8.14293C11 9.46901 10.4732 10.7408 9.53553 11.6785C8.59785 12.6161 7.32608 13.1429 6 13.1429C4.67392 13.1429 3.40215 12.6161 2.46447 11.6785C1.52678 10.7408 1 9.46901 1 8.14293V6.71436" stroke="#636363" stroke-width="1.3" stroke-linecap="round" stroke-linejoin="round"/>
<path id="Vector_3" d="M6.00019 13.1428V16M6.00019 16H7.17659M6.00019 16L4.9707 16" stroke="#636363" stroke-width="1.3" stroke-linecap="round" stroke-linejoin="round"/>
</g>
</svg>
