<svg width="13" height="18" viewBox="0 0 13 18" fill="none" xmlns="http://www.w3.org/2000/svg">
<g id="Group 39">
<path id="Vector" d="M11.6072 7H1.39286C0.367187 7 0 7.89543 0 9V16C0 17.1046 0.367187 18 1.39286 18H11.6072C12.6329 18 13 17.1046 13 16V9C13 7.89543 12.6329 7 11.6072 7Z" fill="#477DAB"/>
<path id="Vector_2" d="M2.78564 8V4.88889C2.78564 3.85749 3.17697 2.86834 3.87354 2.13903C4.5701 1.40972 5.51485 1 6.49995 1C7.48504 1 8.42979 1.40972 9.12635 2.13903C9.82292 2.86834 10.2142 3.85749 10.2142 4.88889V8" stroke="#477DAB" stroke-linecap="round" stroke-linejoin="round"/>
</g>
</svg>
