<svg width="25" height="24" viewBox="0 0 25 24" fill="none" xmlns="http://www.w3.org/2000/svg">
<g id="more_horiz_FILL0_wght400_GRAD0_opsz24 1">
<path id="Vector" d="M6.5 14C5.95 14 5.47917 13.8042 5.0875 13.4125C4.69583 13.0208 4.5 12.55 4.5 12C4.5 11.45 4.69583 10.9792 5.0875 10.5875C5.47917 10.1958 5.95 10 6.5 10C7.05 10 7.52083 10.1958 7.9125 10.5875C8.30417 10.9792 8.5 11.45 8.5 12C8.5 12.55 8.30417 13.0208 7.9125 13.4125C7.52083 13.8042 7.05 14 6.5 14ZM12.5 14C11.95 14 11.4792 13.8042 11.0875 13.4125C10.6958 13.0208 10.5 12.55 10.5 12C10.5 11.45 10.6958 10.9792 11.0875 10.5875C11.4792 10.1958 11.95 10 12.5 10C13.05 10 13.5208 10.1958 13.9125 10.5875C14.3042 10.9792 14.5 11.45 14.5 12C14.5 12.55 14.3042 13.0208 13.9125 13.4125C13.5208 13.8042 13.05 14 12.5 14ZM18.5 14C17.95 14 17.4792 13.8042 17.0875 13.4125C16.6958 13.0208 16.5 12.55 16.5 12C16.5 11.45 16.6958 10.9792 17.0875 10.5875C17.4792 10.1958 17.95 10 18.5 10C19.05 10 19.5208 10.1958 19.9125 10.5875C20.3042 10.9792 20.5 11.45 20.5 12C20.5 12.55 20.3042 13.0208 19.9125 13.4125C19.5208 13.8042 19.05 14 18.5 14Z" fill="black"/>
</g>
</svg>
