<svg width="18" height="9" viewBox="0 0 18 9" fill="none" xmlns="http://www.w3.org/2000/svg">
<path id="Union" fill-rule="evenodd" clip-rule="evenodd" d="M8.83061 5.72727C8.2964 7.61605 6.55982 9 4.5 9C2.01472 9 0 6.98528 0 4.5C0 2.01472 2.01472 0 4.5 0C6.40799 0 8.03863 1.18744 8.69323 2.86364H9H15.9545H16.3711H17.0818C17.137 2.86364 17.1818 2.90841 17.1818 2.96364V4.4C17.1818 4.45523 17.137 4.5 17.0818 4.5H16.0545C15.9993 4.5 15.9545 4.54477 15.9545 4.6V5.62727C15.9545 5.6825 15.9098 5.72727 15.8545 5.72727H15.5455H14.7273H14.0091C13.9539 5.72727 13.9091 5.77204 13.9091 5.82727V6.9C13.9091 6.95522 13.8643 7 13.8091 7H12.3727C12.3175 7 12.2727 6.95522 12.2727 6.9V5.82727C12.2727 5.77204 12.228 5.72727 12.1727 5.72727H9H8.83061ZM6.54545 4.5C6.54545 5.62967 5.62967 6.54545 4.5 6.54545C3.37033 6.54545 2.45455 5.62967 2.45455 4.5C2.45455 3.37033 3.37033 2.45455 4.5 2.45455C5.62967 2.45455 6.54545 3.37033 6.54545 4.5Z" fill="#0781AF"/>
</svg>
